<svg width="14" height="14" viewBox="0 0 14 14" fill="none" xmlns="http://www.w3.org/2000/svg">
<g clip-path="url(#clip0_11_296)">
<path d="M11.6667 13.3583C11.6083 13.3583 11.55 13.3583 11.4917 13.3583C9.625 13.125 7.75833 12.4833 6.18333 11.4917C4.725 10.5583 3.44166 9.275 2.50833 7.81667C1.45833 6.24167 0.816663 4.375 0.641663 2.50833C0.641663 2.04167 0.758329 1.575 1.05 1.225C1.34166 0.874999 1.75 0.641666 2.21666 0.583332C2.275 0.583332 2.33333 0.583332 2.39166 0.583332H4.14166C5.01666 0.583332 5.775 1.225 5.89166 2.1C5.95 2.625 6.06666 3.15 6.24166 3.61667C6.475 4.25833 6.3 4.95833 5.83333 5.48333L5.425 5.89167C6.125 6.94167 7 7.875 8.10833 8.575L8.51666 8.16667C8.98333 7.7 9.74166 7.525 10.3833 7.75833C10.85 7.93333 11.375 8.05 11.9 8.10833C12.775 8.225 13.4167 8.98333 13.4167 9.85833V11.6083C13.4167 12.075 13.2417 12.5417 12.8917 12.8333C12.5417 13.125 12.1333 13.3583 11.6667 13.3583ZM4.14166 1.75H2.39166C2.21666 1.75 2.04166 1.86667 1.925 1.98333C1.86666 2.1 1.80833 2.21667 1.80833 2.39167C1.98333 4.08333 2.56666 5.71667 3.5 7.175C4.375 8.51667 5.48333 9.68333 6.825 10.5C8.28333 11.4333 9.91666 12.0167 11.6083 12.1917C11.8417 12.1917 11.9583 12.1333 12.075 12.0167C12.1917 11.9 12.25 11.7833 12.25 11.6083V9.85833C12.25 9.56667 12.0167 9.33333 11.725 9.275C11.1417 9.21667 10.5583 9.04167 9.975 8.80833C9.74166 8.75 9.50833 8.75 9.33333 8.925L8.575 9.68333C8.4 9.85833 8.10833 9.91667 7.875 9.8C6.3 8.925 5.01666 7.64167 4.14166 6.06667C4.08333 5.83333 4.14166 5.54167 4.31666 5.36667L5.075 4.60833C5.19166 4.49167 5.25 4.2 5.19166 4.025C4.95833 3.44167 4.84166 2.85833 4.725 2.275C4.725 1.98333 4.43333 1.75 4.14166 1.75ZM11.0833 5.83333C10.7917 5.83333 10.5583 5.65833 10.5 5.36667C10.325 4.43333 9.56666 3.73333 8.63333 3.5C8.34166 3.44167 8.10833 3.15 8.16666 2.8C8.225 2.50833 8.51666 2.275 8.86666 2.33333C10.2667 2.625 11.375 3.675 11.6083 5.075C11.6667 5.36667 11.4917 5.71667 11.1417 5.775C11.1417 5.775 11.1417 5.83333 11.0833 5.83333ZM13.4167 5.775C13.125 5.775 12.8917 5.54167 12.8333 5.25C12.6 3.09167 10.9083 1.4 8.69166 1.10833C8.4 1.05 8.16666 0.758332 8.16666 0.466666C8.16666 0.174999 8.51666 -0.0583344 8.80833 -0.0583344C11.55 0.233332 13.65 2.33333 13.9417 5.075C14 5.36667 13.7667 5.65833 13.4167 5.71667C13.475 5.775 13.4167 5.775 13.4167 5.775Z" fill="white"/>
</g>
<defs>
<clipPath id="clip0_11_296">
<rect width="14" height="14" fill="white"/>
</clipPath>
</defs>
</svg>
