 <svg display="none" xmlns="http://www.w3.org/2000/svg">
  <symbol id="facebook" width="20" height="20" viewBox="0 0 20 20">
    <g>
      <path d="M10.001 0.00195312C4.47901 0.00195312 0.00201416 4.47895 0.00201416 10.001C0.00201416 14.991 3.65801 19.127 8.43901 19.88V12.892H5.89901V10.001H8.43901V7.79795C8.43901 5.28995 9.93201 3.90695 12.215 3.90695C13.309 3.90695 14.455 4.10195 14.455 4.10195V6.56095H13.191C11.951 6.56095 11.563 7.33295 11.563 8.12395V9.99895H14.334L13.891 12.89H11.563V19.878C16.344 19.129 20 14.992 20 10.001C20 4.47895 15.523 0.00195312 10.001 0.00195312Z" fill="#BDBDBD"/>
    </g>
  </symbol>
  <symbol id="youtube" width="21" height="21" viewBox="0 0 21 21">
    <g>
      <path d="M12.1831 10.3247L9.82483 9.22429C9.61903 9.12874 9.44998 9.23584 9.44998 9.46369V11.5364C9.44998 11.7642 9.61903 11.8713 9.82483 11.7758L12.1821 10.6754C12.3889 10.5788 12.3889 10.4213 12.1831 10.3247ZM10.5 0.420044C4.93288 0.420044 0.419983 4.93294 0.419983 10.5C0.419983 16.0671 4.93288 20.58 10.5 20.58C16.0671 20.58 20.58 16.0671 20.58 10.5C20.58 4.93294 16.0671 0.420044 10.5 0.420044ZM10.5 14.595C5.34028 14.595 5.24998 14.1299 5.24998 10.5C5.24998 6.87019 5.34028 6.40504 10.5 6.40504C15.6597 6.40504 15.75 6.87019 15.75 10.5C15.75 14.1299 15.6597 14.595 10.5 14.595Z" fill="#BDBDBD"/>
    </g>
  </symbol>
  <symbol id="instagram" width="20" height="20" viewBox="0 0 20 20">
    <g>
      <path d="M10 20C8.64583 20 7.35026 19.7363 6.11328 19.209C4.8763 18.6816 3.81185 17.972 2.91992 17.0801C2.02799 16.1882 1.31836 15.1237 0.791016 13.8867C0.263672 12.6497 0 11.3542 0 10C0 8.64583 0.263672 7.35026 0.791016 6.11328C1.31836 4.8763 2.02799 3.81185 2.91992 2.91992C3.81185 2.02799 4.8763 1.31836 6.11328 0.791016C7.35026 0.263672 8.64583 0 10 0C11.3542 0 12.6497 0.263672 13.8867 0.791016C15.1237 1.31836 16.1882 2.02799 17.0801 2.91992C17.972 3.81185 18.6816 4.8763 19.209 6.11328C19.7363 7.35026 20 8.64583 20 10C20 11.3542 19.7363 12.6497 19.209 13.8867C18.6816 15.1237 17.972 16.1882 17.0801 17.0801C16.1882 17.972 15.1237 18.6816 13.8867 19.209C12.6497 19.7363 11.3542 20 10 20ZM15 6.25C15 5.91146 14.8796 5.61849 14.6387 5.37109C14.3978 5.1237 14.1016 5 13.75 5H6.25C5.91146 5 5.61849 5.1237 5.37109 5.37109C5.1237 5.61849 5 5.91146 5 6.25V7.5H7.22656C7.98177 6.66667 8.90625 6.25 10 6.25C11.0938 6.25 12.0182 6.66667 12.7734 7.5H15V6.25ZM7.5 10C7.5 10.6901 7.74414 11.2793 8.23242 11.7676C8.7207 12.2559 9.3099 12.5 10 12.5C10.6901 12.5 11.2793 12.2559 11.7676 11.7676C12.2559 11.2793 12.5 10.6901 12.5 10C12.5 9.3099 12.2559 8.7207 11.7676 8.23242C11.2793 7.74414 10.6901 7.5 10 7.5C9.3099 7.5 8.7207 7.74414 8.23242 8.23242C7.74414 8.7207 7.5 9.3099 7.5 10ZM15 8.75H13.5156C13.6719 9.17969 13.75 9.59635 13.75 10C13.75 11.0417 13.3854 11.9271 12.6562 12.6562C11.9271 13.3854 11.0417 13.75 10 13.75C8.95833 13.75 8.07292 13.3854 7.34375 12.6562C6.61458 11.9271 6.25 11.0417 6.25 10C6.25 9.59635 6.32812 9.17969 6.48438 8.75H5V13.75C5 14.1016 5.12044 14.3978 5.36133 14.6387C5.60221 14.8796 5.89844 15 6.25 15H13.75C14.1016 15 14.3978 14.8796 14.6387 14.6387C14.8796 14.3978 15 14.1016 15 13.75V8.75Z" fill="#BDBDBD"/>
    </g>
  </symbol>
  <symbol id="map" width="14" height="20" viewBox="0 0 14 20">
    <g>
      <path d="M7 0C3.13 0 0 3.13 0 7C0 11.17 4.42 16.92 6.24 19.11C6.64 19.59 7.37 19.59 7.77 19.11C9.58 16.92 14 11.17 14 7C14 3.13 10.87 0 7 0ZM7 9.5C6.33696 9.5 5.70107 9.23661 5.23223 8.76777C4.76339 8.29893 4.5 7.66304 4.5 7C4.5 6.33696 4.76339 5.70107 5.23223 5.23223C5.70107 4.76339 6.33696 4.5 7 4.5C7.66304 4.5 8.29893 4.76339 8.76777 5.23223C9.23661 5.70107 9.5 6.33696 9.5 7C9.5 7.66304 9.23661 8.29893 8.76777 8.76777C8.29893 9.23661 7.66304 9.5 7 9.5V9.5Z" fill="#BDBDBD"/>
    </g>
  </symbol>
  <symbol id="phone"  width="20" height="20" viewBox="0 0 20 20">
    <g>
      <path d="M17.1667 9.54079H19.0833C19.0833 4.62454 15.3717 0.916748 10.4487 0.916748V2.83341C14.3415 2.83341 17.1667 5.65379 17.1667 9.54079Z" fill="#BDBDBD"/>
      <path d="M10.4583 6.66672C12.4737 6.66672 13.3333 7.52635 13.3333 9.54172H15.25C15.25 6.4511 13.549 4.75006 10.4583 4.75006V6.66672ZM13.7378 11.8829C13.5536 11.7156 13.3116 11.6263 13.0629 11.634C12.8142 11.6417 12.5782 11.7457 12.4047 11.9241L10.1114 14.2826C9.55942 14.1772 8.44967 13.8312 7.30733 12.6918C6.165 11.5485 5.81904 10.4359 5.7165 9.88768L8.07304 7.59343C8.25169 7.4201 8.35588 7.18405 8.36357 6.93526C8.37126 6.68646 8.28185 6.44443 8.11425 6.26039L4.57321 2.36668C4.40554 2.18206 4.17251 2.07008 3.9236 2.05451C3.6747 2.03895 3.42953 2.12102 3.24017 2.28331L1.16058 4.06677C0.994898 4.23305 0.896006 4.45436 0.882666 4.68872C0.868291 4.92831 0.594208 10.6036 4.99487 15.0061C8.83396 18.8443 13.6429 19.1251 14.9673 19.1251C15.1609 19.1251 15.2797 19.1193 15.3113 19.1174C15.5457 19.1043 15.7669 19.0049 15.9323 18.8385L17.7148 16.758C17.8772 16.5687 17.9595 16.3236 17.9441 16.0747C17.9287 15.8258 17.8169 15.5927 17.6324 15.4249L13.7378 11.8829Z" fill="#BDBDBD"/>
    </g>
  </symbol>
  <symbol id="mail"  width="18" height="14" viewBox="0 0 18 14">
    <g>
     <path d="M15.6667 0.333252H2.33333C1.41666 0.333252 0.674997 1.08325 0.674997 1.99992L0.666664 11.9999C0.666664 12.9166 1.41666 13.6666 2.33333 13.6666H15.6667C16.5833 13.6666 17.3333 12.9166 17.3333 11.9999V1.99992C17.3333 1.08325 16.5833 0.333252 15.6667 0.333252ZM15.3333 3.87492L9.44166 7.55825C9.175 7.72492 8.825 7.72492 8.55833 7.55825L2.66666 3.87492C2.5831 3.82801 2.50993 3.76464 2.45157 3.68863C2.39321 3.61262 2.35088 3.52557 2.32714 3.43273C2.3034 3.33989 2.29875 3.2432 2.31346 3.14851C2.32817 3.05382 2.36194 2.9631 2.41273 2.88184C2.46352 2.80058 2.53027 2.73046 2.60894 2.67575C2.6876 2.62103 2.77656 2.58284 2.87041 2.5635C2.96426 2.54416 3.06107 2.54406 3.15496 2.56321C3.24885 2.58236 3.33788 2.62036 3.41666 2.67492L9 6.16658L14.5833 2.67492C14.6621 2.62036 14.7511 2.58236 14.845 2.56321C14.9389 2.54406 15.0357 2.54416 15.1296 2.5635C15.2234 2.58284 15.3124 2.62103 15.3911 2.67575C15.4697 2.73046 15.5365 2.80058 15.5873 2.88184C15.6381 2.9631 15.6718 3.05382 15.6865 3.14851C15.7012 3.2432 15.6966 3.33989 15.6729 3.43273C15.6491 3.52557 15.6068 3.61262 15.5484 3.68863C15.4901 3.76464 15.4169 3.82801 15.3333 3.87492V3.87492Z" fill="#BDBDBD"/>
    </g>
  </symbol>  
</svg>