<svg width="8" height="8" viewBox="0 0 8 8" fill="none" xmlns="http://www.w3.org/2000/svg">
<path fill-rule="evenodd" clip-rule="evenodd" d="M4 0.333328C4.12687 0.333328 4.24275 0.405352 4.2989 0.51912L5.25142 2.44882L7.38154 2.76017C7.50706 2.77851 7.61129 2.86652 7.65041 2.98718C7.68954 3.10785 7.65678 3.24027 7.56591 3.32878L6.02484 4.82978L6.38854 6.95031C6.40999 7.07538 6.35857 7.20177 6.25591 7.27635C6.15325 7.35092 6.01715 7.36075 5.90485 7.30169L4 6.29994L2.09515 7.30169C1.98284 7.36075 1.84675 7.35092 1.74409 7.27635C1.64143 7.20177 1.59001 7.07538 1.61146 6.95031L1.97516 4.82978L0.434089 3.32878C0.343216 3.24027 0.310459 3.10785 0.349585 2.98718C0.38871 2.86652 0.492937 2.77851 0.618457 2.76017L2.74858 2.44882L3.7011 0.51912C3.75725 0.405352 3.87313 0.333328 4 0.333328ZM4 1.41975L3.2689 2.90087C3.22039 2.99915 3.12666 3.06731 3.01821 3.08316L1.3828 3.3222L2.56591 4.47454C2.64454 4.55112 2.68042 4.6615 2.66187 4.76968L2.38273 6.39722L3.84485 5.6283C3.94198 5.57723 4.05802 5.57723 4.15515 5.6283L5.61727 6.39722L5.33813 4.76968C5.31958 4.6615 5.35546 4.55112 5.43409 4.47454L6.6172 3.3222L4.98179 3.08316C4.87334 3.06731 4.77961 2.99915 4.7311 2.90087L4 1.41975Z" fill="#F2994A"/>
<path d="M2.33333 5L1 3L3 2.66667L4 1L5 2.66667L7 3.33333L5.66667 4.66667L6 7L4 6L2 7L2.33333 5Z" fill="#F2994A"/>
</svg>
